<svg xmlns="http://www.w3.org/2000/svg" viewBox="0 0 181.7 111.93"><defs><style>.cls-1{fill:#fff;}</style></defs><title>logo_chrisFichier 1</title><g id="Calque_2" data-name="Calque 2"><g id="Calque_1-2" data-name="Calque 1"><path class="cls-1" d="M70.28,83.51a25.48,25.48,0,0,1-6.77.89,20.61,20.61,0,0,1-15.93-6.85q-6.26-6.84-6.25-20,0-14.79,6.3-22.09c.06-.07.13-.12.19-.19a16.58,16.58,0,0,0-2.13,2.07q-4.55,5.34-4.55,17.54v54.66h-.72a115.4,115.4,0,0,0,25.41,2.42,86.57,86.57,0,0,0,21.57-2.42H70.28Z"/><path class="cls-1" d="M55,4.13A42.39,42.39,0,0,1,70.35.23C68,.09,65.49,0,62.91,0A93.32,93.32,0,0,0,38.32,2.86V18.05Q46.6,8.27,55,4.13Z"/><path class="cls-1" d="M110.2,15.62a45.05,45.05,0,0,0-7.31-6.24c-1.07-.73-2.22-1.41-3.4-2.06"/><path class="cls-1" d="M121,33.45c-1.87,1.62-3.87,2.62-5.2,4-.07.08-.12.18-.19.27"/><path class="cls-1" d="M111.42,70.53V95.59"/><path class="cls-1" d="M95.68,4.54Q88.2,0,75.38,0c-1.74,0-3.4.09-5,.23q17.93,1,29.14,7.09A29.2,29.2,0,0,0,95.68,4.54Z"/><path class="cls-1" d="M17.94,98.48A51.79,51.79,0,0,1,5.13,81.8Q.5,72.23.49,56.42q0-16.53,5.65-27.51A49.85,49.85,0,0,1,17.43,14.46,51.92,51.92,0,0,1,32.16,4.94a53.56,53.56,0,0,1,6.16-2.08V2.42H0V109.51H40.42c-1-.24-2-.49-3-.76A49.61,49.61,0,0,1,17.94,98.48Z"/><path class="cls-1" d="M77,31.61q-4.8-3.48-12.86-3.48a20.74,20.74,0,0,0-16.3,7.11A14.57,14.57,0,0,1,57.33,32a12.15,12.15,0,0,1,7.59,2.48,13,13,0,0,1,4.55,6.5q.81,2.52.81,9.58v33a19.91,19.91,0,0,0,6.8-3.25q5.49-4.12,8.21-12.7l26.13,3V54.25c0-7.55,1.42-13.06,4.23-16.57L83.58,42A17.92,17.92,0,0,0,77,31.61Z"/><path class="cls-1" d="M172,10.23Q162.37,0,145.15,0q-11.68,0-19.63,3.78-7,3.33-15.32,11.84A50.91,50.91,0,0,1,121,33.45a15.82,15.82,0,0,1,6.46-1.28q6.13,0,10.25,5.54,2.82,3.52,2.81,10.79v61H181.7V42.25Q181.7,20.47,172,10.23Z"/><path class="cls-1" d="M94.92,107a53,53,0,0,1-7.52,2.52h24V95.59A49.9,49.9,0,0,1,94.92,107Z"/><path class="cls-1" d="M121,33.45c-1.87,1.62-4.87,3.62-5.2,4"/></g></g></svg>